<?xml version="1.0" encoding="utf-8"?>
<!-- Generator: Adobe Illustrator 25.1.0, SVG Export Plug-In . SVG Version: 6.00 Build 0)  -->
<svg version="1.1" id="Layer_1" xmlns="http://www.w3.org/2000/svg" xmlns:xlink="http://www.w3.org/1999/xlink" x="0px" y="0px"
	 viewBox="0 0 1009.1 267.4" style="enable-background:new 0 0 1009.1 267.4;" xml:space="preserve">
<g>
	<path d="M803.6,205.7c-7.8,0-15.5-1.6-23-4.9c-7.5-3.2-14.1-7.7-19.9-13.2c-5.8-5.5-10.5-12.1-14-19.5c-3.5-7.4-5.3-15.4-5.3-23.9
		c0-8.8,1.9-17,5.7-24.6c3.8-7.5,8.7-14.1,14.7-19.5c5.9-5.5,12.7-9.8,20-12.8c7.3-3,14.7-4.6,21.8-4.6c7.1,0,14.4,1.5,21.8,4.6
		c7.3,3,14.1,7.3,20,12.8c5.9,5.4,10.9,12,14.7,19.5c3.8,7.5,5.7,15.8,5.7,24.6c0,8.4-1.8,16.4-5.3,23.9c-3.5,7.4-8.3,14-14,19.5
		c-5.7,5.5-12.4,10-19.9,13.2C819.1,204.1,811.4,205.7,803.6,205.7 M803.6,88.8c-5.9,0-11.1,1-15.5,2.8c-4.3,1.9-8,5-10.8,9.4
		c-2.9,4.4-5,10.1-6.4,17.1c-1.4,7-2.1,15.8-2.1,26.2c0,12.3,1,22.2,2.9,29.4c1.9,7.2,4.5,12.8,7.6,16.7c3.1,3.8,6.8,6.4,10.9,7.6
		c4.2,1.2,8.7,1.8,13.4,1.8c4.7,0,9.2-0.6,13.4-1.8c4.1-1.2,7.8-3.7,10.9-7.6c3.1-3.9,5.7-9.5,7.6-16.7c1.9-7.2,2.9-17.2,2.9-29.4
		c0-10.4-0.7-19.2-2.1-26.2c-1.4-7-3.6-12.7-6.4-17.1c-2.9-4.4-6.5-7.5-10.8-9.4C814.7,89.7,809.5,88.8,803.6,88.8"/>
	<path d="M125,144.5c0-35.9,22-60.8,61.1-60.8c39.1,0,61.1,24.9,61.1,60.8c0,35.9-22,60.8-61.1,60.8C147,205.3,125,180.4,125,144.5
		 M215.8,144.5c0-21.1-9.1-38-29.7-38c-20.6,0-29.7,16.9-29.7,38c0,21.2,9.1,38,29.7,38C206.7,182.5,215.8,165.6,215.8,144.5"/>
	<path d="M256.3,144.5c0-35.9,22-60.8,61.1-60.8c39.1,0,61.1,24.9,61.1,60.8c0,35.9-22,60.8-61.1,60.8
		C278.2,205.3,256.3,180.4,256.3,144.5 M347.1,144.5c0-21.1-9.1-38-29.7-38c-20.6,0-29.7,16.9-29.7,38c0,21.2,9.1,38,29.7,38
		C337.9,182.5,347.1,165.6,347.1,144.5"/>
	<path d="M388,144.5c0-37.2,21.7-60.8,54.4-60.8c12.6,0,22.5,3.5,30.5,9.1v-56h-22V13h52.2v165.8h17.7v23.6h-45.3v-12.9
		c-8.3,8.9-19,15.8-35.9,15.8C408.7,205.3,388,180.6,388,144.5 M472.9,172.6V114c-5.9-4.3-13.1-7.2-22.5-7.2
		c-21.1,0-31.3,14.5-31.3,37.2c0,20.4,8.3,38.3,29.2,38.3C458.5,182.2,466.8,178,472.9,172.6"/>
	<path d="M930.9,206.1c-32.2,0-56.5-26.1-56.5-60.8c0-25.4,20.8-60.8,54.6-60.8c18.5,0,32.2,13.6,37.7,27.3V20.6h-21.8V14h22.2
		c8.5,0,17.2-0.5,22.5-6.7l0.7-0.8v189.6h18.8v6.6h-42.5v-19.6C962.3,192.6,949.4,206.1,930.9,206.1 M929,91
		c-23.5,0-27.6,17.5-27.6,54.3c0,38.6,2.7,54.3,29.5,54.3c9.4,0,18.7-3.9,25.4-10.8c6.8-6.9,10.5-16.1,10.3-26v-31.1
		C966.7,112.5,951.2,91,929,91"/>
	<path d="M532.2,202.8v-5.2l0.4-0.1c10.6,0,17.8-0.6,21.4-1.8c1.6-0.6,2.2-1.1,2.4-1.4c0.3-0.4,0.6-1.6,0.7-4.7V88.9h-24.8v-6.7H557
		V71.6c0-17.1,0.7-31.2,9.1-45.1c9.7-15.8,22.9-18,34.7-18c17.5,0,25.3,12.8,25.3,25.5c0,6.7-4.7,13.4-13.7,13.4
		c-8.3,0-12-5.8-12-11.5c0-13.2,9.1-15.5,14.9-15.6c-0.4-3.6-6.4-6.6-13.4-6.6c-12.5,0-20.8,6.4-20.8,37.7v30.6h26.1v6.7H581v101
		c0.1,2.8,0.4,3.8,0.7,4.2c0.2,0.3,0.8,0.8,2.4,1.4c3.6,1.2,10.9,1.8,21.6,1.8h0.4v3.2h0v2.2H532.2L532.2,202.8z"/>
	<path d="M670.5,205.7c-7.8,0-15.5-1.6-23-4.9c-7.5-3.2-14.1-7.7-19.9-13.2c-5.8-5.5-10.5-12.1-14-19.5c-3.5-7.4-5.3-15.4-5.3-23.9
		c0-8.8,1.9-17,5.7-24.6c3.8-7.5,8.7-14.1,14.7-19.5c5.9-5.5,12.7-9.8,20-12.8c7.4-3,14.7-4.6,21.8-4.6c7.1,0,14.4,1.5,21.8,4.6
		c7.3,3,14.1,7.3,20,12.8c5.9,5.4,10.9,12,14.7,19.5c3.8,7.5,5.7,15.8,5.7,24.6c0,8.4-1.8,16.4-5.3,23.9c-3.5,7.4-8.3,14-14,19.5
		c-5.7,5.5-12.4,10-19.9,13.2C686,204.1,678.3,205.7,670.5,205.7 M670.5,88.8c-5.9,0-11.1,1-15.5,2.8c-4.3,1.9-8,5-10.8,9.4
		c-2.9,4.4-5,10.1-6.4,17.1c-1.4,7-2.1,15.8-2.1,26.2c0,12.3,1,22.2,2.9,29.4c1.9,7.2,4.5,12.8,7.6,16.7c3.1,3.8,6.8,6.4,10.9,7.6
		c4.2,1.2,8.7,1.8,13.4,1.8c4.7,0,9.2-0.6,13.4-1.8c4.1-1.2,7.8-3.7,10.9-7.6c3.1-3.9,5.7-9.5,7.6-16.7c1.9-7.2,2.9-17.2,2.9-29.4
		c0-10.4-0.7-19.2-2.1-26.2c-1.4-7-3.6-12.7-6.4-17.1c-2.9-4.4-6.5-7.5-10.8-9.4C681.6,89.7,676.4,88.8,670.5,88.8"/>
	<path d="M122.5,86.8H76.1c-5.9-1.9-12.9-3-20.5-3c-33.4,0-50.4,20.2-50.4,44.8c0,14.1,5.4,26.7,16.5,35.1
		c-7.8,5.7-14.3,12.9-14.3,22.7c0,6.5,3,11,7.5,14.3C4.6,206.8,0,215.2,0,227c0,17.8,12.7,40.4,54.5,40.4
		c49.3,0,61.8-28.6,61.8-47.4c0-48.3-82.5-21.2-82.5-44.8c0-1.6,0.8-3.2,2.2-4.6c5.7,1.9,12.1,2.7,19.7,2.7
		c33.4,0,50.4-20.2,50.4-44.8c0-6.7-1.6-13.5-4-19.5h20.5V86.8L122.5,86.8z M82.6,213.7v8.1c0,7.4-2.2,12.8-6.7,16.4
		c-4.5,3.5-9.3,5.3-17.6,5.3c-8.3,0-14.6-1.8-18.9-5.3c-4.3-3.6-6.5-8.6-6.5-15.2v-9.2C32.8,213.7,55.7,230.4,82.6,213.7
		 M55.6,152.3c-10.3,0-22.1-5.4-22.1-23.7c0-18.3,11.8-23.4,22.1-23.4c10.2,0,22.1,5.1,22.1,23.4C77.7,147.2,65.9,152.3,55.6,152.3"
		/>
	<path d="M185,50.7h-53.8V0H185V50.7L185,50.7z M174.3,33.8l-0.9,0.5c-4.2,2.5-8.7,3.9-12.8,3.9c-8.8,0-14.6-5.3-14.6-12.9
		c0-7.4,6.1-12.9,14.4-13c4.3,0,8.1,1.1,12.7,3.6l0.8,0.5V9.7l-0.4-0.1c-5.2-2-9.2-2.9-13.1-2.9c-6.1,0-11.4,2-15.2,5.4
		c-3.8,3.4-6,8.3-6,13.8c0,3.9,1.6,8.4,5,12c3.4,3.6,8.6,6.2,15.8,6.2h0c6,0,10.1-1.3,13.8-3.2l0.3-0.2V33.8L174.3,33.8z"/>
	<path d="M122.9,50.7H69.1V0h53.8V50.7L122.9,50.7z M110.2,33.6c0-4.6-3.1-8.1-8-9.4c1.3-0.7,2.4-1.5,3.1-2.5c1-1.4,1.5-3,1.5-4.9
		c0-2.4-0.9-4.8-2.9-6.6c-2-1.8-5-3-9.2-3H83.2v36.5h13.5h0c4.8,0,8.2-1.3,10.3-3.2C109.2,38.4,110.2,35.9,110.2,33.6"/>
	<path d="M103.5,32.9c0,1.2-0.4,2.4-1.5,3.4c-1.1,0.9-2.9,1.7-6,1.7h-6.2v-10h5.9c2.8,0,4.7,0.6,6,1.4
		C102.9,30.2,103.4,31.4,103.5,32.9"/>
	<path d="M98.4,20.9c1.2-0.8,1.7-2,1.7-3.8c0-1.2-0.3-2.3-1.2-3c-0.9-0.8-2.4-1.3-4.8-1.3h-4.4v9.4h3C95.4,22.2,97.3,21.8,98.4,20.9
		"/>
	<path d="M60.9,50.7H7.1V0h53.8V50.7L60.9,50.7z M48.1,33.6c0-4.6-3.1-8.1-8-9.4c1.3-0.7,2.4-1.5,3.1-2.5c1-1.4,1.5-3,1.5-4.9
		c0-2.4-0.9-4.8-2.9-6.6c-2-1.8-5.1-3-9.2-3H21.2v36.5h13.5h0c4.8,0,8.2-1.3,10.3-3.2C47.2,38.4,48.1,35.9,48.1,33.6"/>
	<path d="M36.4,20.9c1.2-0.8,1.7-2,1.7-3.8c0-1.2-0.4-2.3-1.2-3c-0.9-0.8-2.4-1.3-4.8-1.3h-4.4v9.4h3C33.4,22.2,35.2,21.8,36.4,20.9
		"/>
	<path d="M39.6,29.4c-1.2-0.9-3.2-1.4-6-1.4h-5.9v10H34c3.1,0,4.9-0.7,6-1.7c1.1-1,1.4-2.2,1.5-3.4C41.4,31.4,40.9,30.2,39.6,29.4"
		/>
</g>
</svg>
