<?xml version="1.0" encoding="utf-8"?>
<!-- Generator: Adobe Illustrator 24.0.3, SVG Export Plug-In . SVG Version: 6.00 Build 0)  -->
<svg version="1.1" id="Layer_1" xmlns="http://www.w3.org/2000/svg" xmlns:xlink="http://www.w3.org/1999/xlink" x="0px" y="0px"
	 viewBox="0 0 667 237" style="enable-background:new 0 0 667 237;" xml:space="preserve">
<style type="text/css">
	.st0{fill:#4D4D4D;}
	.st1{fill:url(#SVGID_1_);}
</style>
<g>
	<path class="st0" d="M214.3,109.8c2.9,0,5.2,2.1,5.2,4.9c0,2.8-2.3,4.9-5.2,4.9c-2.8,0-5.2-2.1-5.2-4.9
		C209.1,111.8,211.5,109.8,214.3,109.8z M218.1,132.1c0-2.1-1.6-3.8-3.8-3.8c-2.1,0-3.7,1.7-3.7,3.8v31.7c0,2.1,1.6,3.8,3.7,3.8
		c2.1,0,3.8-1.7,3.8-3.8V132.1z"/>
	<path class="st0" d="M241.6,134.5c2.3-4.6,7.8-6.6,12-6.6c9.6,0,14.8,6.3,14.8,17.1v18.9c0,2.1-1.6,3.8-3.8,3.8
		c-2.1,0-3.7-1.7-3.7-3.8v-18.4c0-6.4-3.2-10.2-8.5-10.2c-5.4,0-10.9,3-10.9,11.2v17.4c0,2.1-1.6,3.8-3.8,3.8
		c-2.1,0-3.7-1.7-3.7-3.8v-31.7c0-2.1,1.6-3.8,3.7-3.8c2.1,0,3.8,1.7,3.8,3.8V134.5z"/>
	<path class="st0" d="M282.5,135.1c-1.7,0-3.2-1.4-3.2-3.2c0-1.7,1.5-3.1,3.2-3.1h4.1v-11.1c0-2.1,1.6-3.8,3.7-3.8
		c2.1,0,3.8,1.7,3.8,3.8v11.1h5.4c1.7,0,3.2,1.4,3.2,3.2c0,1.7-1.5,3.1-3.2,3.1h-5.4v28.8c0,2.1-1.6,3.8-3.8,3.8
		c-2.1,0-3.7-1.7-3.7-3.8v-28.8H282.5z"/>
	<path class="st0" d="M347,150.8h-28.3c0.9,6.4,5.9,10.5,12.4,10.5c4.6,0,7.2-1.2,9.8-4c1.4-1.6,3.5-2.1,5-1
		c1.5,1.2,1.8,3.4,0.7,4.7c-3.7,4.8-9.5,7.1-15.7,7.1c-11,0-19.7-8-19.7-20.2c0-12.2,8.7-19.9,19.7-19.9c11,0,19.1,7.7,19.1,19.9
		C349.9,149.6,348.5,150.8,347,150.8z M342.5,144.9c-0.9-6.4-5.5-10.3-11.7-10.3c-6.3,0-11.3,3.9-12.2,10.3H342.5z"/>
	<path class="st0" d="M380.9,135.1c-7.4,0-10.5,7.9-10.5,18.1v10.6c0,2.1-1.6,3.8-3.8,3.8c-2.1,0-3.7-1.7-3.7-3.8v-31.7
		c0-2.1,1.6-3.8,3.7-3.8c2.1,0,3.8,1.7,3.8,3.8v5.3c2-6.8,5.7-9.5,10.7-9.5c2.8,0,7.4,0.6,6.8,4.6c-0.4,2.4-2.6,2.9-5.2,2.6
		C382.1,135.1,381.4,135.1,380.9,135.1z"/>
	<path class="st0" d="M428.2,161.3c-2.6,4.4-8.2,6.8-13.5,6.8c-10.5,0-19.5-7.9-19.5-20.1c0-12.3,9-20,19.5-20
		c5.4,0,11,2.2,13.5,6.6v-2.4c0-2.1,1.6-3.8,3.7-3.8c2.1,0,3.8,1.7,3.8,3.8v31.7c0,2.1-1.6,3.8-3.8,3.8c-2.1,0-3.7-1.7-3.7-3.8
		V161.3z M415.3,135.2c-6.9,0-12.5,4.9-12.5,12.6c0,7.6,5.6,12.9,12.5,12.9c6.8,0,12.8-4.7,12.8-12.9
		C428.1,139.6,421.5,135.2,415.3,135.2z"/>
	<path class="st0" d="M469.7,160.8c2.7,0,5.3-0.8,7.3-2.3c1.8-1.2,3.9-1.2,5.3,0.3c1.4,1.6,1.2,4.2-0.4,5.4
		c-3.4,2.5-7.6,3.9-12.2,3.9c-11,0-20.4-8-20.4-20.2c0.1-12,9.5-19.9,20.4-19.9c4.6,0,8.7,1.5,12.2,3.9c1.6,1.2,1.8,3.8,0.4,5.4
		c-1.2,1.3-3.5,1.6-5.3,0.3c-2.1-1.5-4.6-2.3-7.3-2.3c-6.9,0-13,5.2-13,12.9C456.9,155.6,462.9,160.8,469.7,160.8z"/>
	<path class="st0" d="M495.3,135.1c-1.7,0-3.2-1.4-3.2-3.2c0-1.7,1.5-3.1,3.2-3.1h4.1v-11.1c0-2.1,1.6-3.8,3.7-3.8
		c2.1,0,3.8,1.7,3.8,3.8v11.1h5.4c1.7,0,3.2,1.4,3.2,3.2c0,1.7-1.5,3.1-3.2,3.1h-5.4v28.8c0,2.1-1.6,3.8-3.8,3.8
		c-2.1,0-3.7-1.7-3.7-3.8v-28.8H495.3z"/>
	<path class="st0" d="M530.5,109.8c2.9,0,5.2,2.1,5.2,4.9c0,2.8-2.3,4.9-5.2,4.9c-2.8,0-5.2-2.1-5.2-4.9
		C525.3,111.8,527.7,109.8,530.5,109.8z M534.2,132.1c0-2.1-1.6-3.8-3.8-3.8c-2.1,0-3.7,1.7-3.7,3.8v31.7c0,2.1,1.6,3.8,3.7,3.8
		c2.1,0,3.8-1.7,3.8-3.8V132.1z"/>
	<path class="st0" d="M569.4,164.1c-0.9,2.2-2.4,3.5-4.6,3.5h-0.4c-2.2,0-3.8-1.3-4.8-3.5l-12.9-30.9c-0.7-1.8,0.3-4.2,2.4-4.7
		c2-0.6,3.8,0.4,4.6,2.5l10.8,27.4l10.7-27.4c0.8-2.1,2.6-3,4.6-2.5c2.1,0.5,3,2.9,2.3,4.7L569.4,164.1z"/>
	<path class="st0" d="M627.5,150.8h-28.3c0.9,6.4,5.9,10.5,12.4,10.5c4.6,0,7.2-1.2,9.8-4c1.4-1.6,3.5-2.1,5-1
		c1.5,1.2,1.8,3.4,0.7,4.7c-3.7,4.8-9.5,7.1-15.7,7.1c-11,0-19.7-8-19.7-20.2c0-12.2,8.7-19.9,19.7-19.9c11,0,19.1,7.7,19.1,19.9
		C630.5,149.6,629.1,150.8,627.5,150.8z M623.1,144.9c-0.9-6.4-5.5-10.3-11.7-10.3c-6.3,0-11.3,3.9-12.2,10.3H623.1z"/>
</g>
<g>
	<path class="st0" d="M219,92.4c0,2.1-1.6,3.8-3.8,3.8c-2.1,0-3.7-1.7-3.7-3.8V42.1c0-2.1,1.6-3.8,3.7-3.8c2.1,0,3.8,1.7,3.8,3.8
		v2.6c2.6-4.4,8.1-6.8,13.4-6.8c10.5,0,19.3,8,19.3,20.2S243,78,232.5,78c-5.4,0-10.9-2.1-13.4-6.6V92.4z M231.7,70.7
		c6.9,0,12.4-4.9,12.4-12.5c0-7.7-5.5-12.9-12.4-12.9c-6.8,0-12.6,4.8-12.6,12.9C219.1,66.4,225.5,70.7,231.7,70.7z"/>
	<path class="st0" d="M283.5,45.1c-7.4,0-10.5,7.9-10.5,18.1v10.6c0,2.1-1.6,3.8-3.8,3.8c-2.1,0-3.7-1.7-3.7-3.8V42.1
		c0-2.1,1.6-3.8,3.7-3.8c2.1,0,3.8,1.7,3.8,3.8v5.3c2-6.8,5.7-9.5,10.7-9.5c2.8,0,7.4,0.6,6.8,4.6c-0.4,2.4-2.6,2.9-5.2,2.6
		C284.7,45.1,284,45.1,283.5,45.1z"/>
	<path class="st0" d="M297.8,57.8c0-12.2,9.1-19.9,20.1-19.9s20.2,7.7,20.2,19.9S328.9,78,317.9,78S297.8,70,297.8,57.8z
		 M330.6,57.8c0-7.7-5.8-12.6-12.7-12.6s-12.7,4.9-12.7,12.6c0,7.8,5.8,12.9,12.7,12.9S330.6,65.7,330.6,57.8z"/>
	<path class="st0" d="M351.9,42.1c0-2.1,1.6-3.8,3.7-3.8c2.1,0,3.8,1.7,3.8,3.8v2.4c2.1-4.3,7.5-6.3,10.6-6.6c1.5-0.1,2.9,0,4.2,0.2
		c4.9,0.7,8.2,3.5,10.1,7.7c3.5-6.8,9.6-7.9,13.3-7.9c9.6,0,14.8,6.3,14.8,17.1v18.9c0,2.1-1.6,3.8-3.8,3.8c-2.1,0-3.7-1.7-3.7-3.8
		V55.4c0-6.3-3.3-10.2-8.8-10.2c-6.3-0.1-10.2,4.8-10.2,11.2v17.4c0,2.1-1.6,3.8-3.8,3.8c-2.1,0-3.7-1.7-3.7-3.8V55.4
		c0-6.3-3.3-10.3-8.3-10.3c-5.4,0-10.7,3.3-10.7,11.4v17.4c0,2.1-1.6,3.8-3.8,3.8c-2.1,0-3.7-1.7-3.7-3.8L351.9,42.1L351.9,42.1z"/>
	<path class="st0" d="M425.9,57.8c0-12.2,9.1-19.9,20.1-19.9s20.2,7.7,20.2,19.9S456.9,78,446,78S425.9,70,425.9,57.8z M458.7,57.8
		c0-7.7-5.8-12.6-12.7-12.6s-12.7,4.9-12.7,12.6c0,7.8,5.8,12.9,12.7,12.9C452.9,70.8,458.7,65.7,458.7,57.8z"/>
	<path class="st0" d="M478.1,45.1c-1.7,0-3.2-1.4-3.2-3.2c0-1.7,1.5-3.1,3.2-3.1h4.1V27.6c0-2.1,1.6-3.8,3.7-3.8
		c2.1,0,3.8,1.7,3.8,3.8v11.1h5.4c1.7,0,3.2,1.4,3.2,3.2c0,1.7-1.5,3.1-3.2,3.1h-5.4v28.8c0,2.1-1.6,3.8-3.8,3.8
		c-2.1,0-3.7-1.7-3.7-3.8V45.1L478.1,45.1L478.1,45.1z"/>
	<path class="st0" d="M513.3,19.8c2.9,0,5.2,2.1,5.2,4.9c0,2.8-2.3,4.9-5.2,4.9c-2.8,0-5.2-2.1-5.2-4.9
		C508.1,21.8,510.5,19.8,513.3,19.8z M517.1,42.1c0-2.1-1.6-3.8-3.8-3.8c-2.1,0-3.7,1.7-3.7,3.8v31.7c0,2.1,1.6,3.8,3.7,3.8
		c2.1,0,3.8-1.7,3.8-3.8V42.1z"/>
	<path class="st0" d="M530.8,57.8c0-12.2,9.1-19.9,20.1-19.9c11,0,20.2,7.7,20.2,19.9S561.9,78,550.9,78C540,78,530.8,70,530.8,57.8
		z M563.6,57.8c0-7.7-5.8-12.6-12.7-12.6s-12.7,4.9-12.7,12.6c0,7.8,5.8,12.9,12.7,12.9C557.9,70.8,563.6,65.7,563.6,57.8z"/>
	<path class="st0" d="M592.4,44.5c2.3-4.6,7.8-6.6,12-6.6c9.6,0,14.8,6.3,14.8,17.1v18.9c0,2.1-1.6,3.8-3.8,3.8
		c-2.1,0-3.7-1.7-3.7-3.8V55.4c0-6.4-3.2-10.2-8.5-10.2c-5.4,0-10.9,3-10.9,11.2v17.4c0,2.1-1.6,3.8-3.8,3.8c-2.1,0-3.7-1.7-3.7-3.8
		V42.1c0-2.1,1.6-3.8,3.7-3.8c2.1,0,3.8,1.7,3.8,3.8V44.5z"/>
	<path class="st0" d="M647.3,71.4c3.9,0,6.8-2.1,6.8-5.1c0-2.8-2.2-4.2-5.1-4.9l-5.3-1.2c-6.5-1.7-10.4-4.9-10.4-11
		c0-6.3,5.7-11.3,13.4-11.3c5,0,9.9,1.8,12.1,6.3c0.3,0.6,0.4,1.2,0.4,1.7c0,2.5-2.4,3.4-3.5,3.4c-1.1,0-1.9-0.6-2.7-1.6
		c-1.7-2.3-3.7-3.2-6.1-3.2c-3.6,0-6,2.1-6,5c0,2.5,2.4,3.9,4.9,4.4l5.7,1.4c8,2,10,6.8,10,11.2c0,7.2-6.9,11.5-14.9,11.5
		c-5.9,0-12-3.3-13.8-9.2c-0.1-0.4-0.2-0.8-0.2-1.2c0-2,1.9-3,3.6-3c1.3,0,2.6,0.7,3.2,2.1C640.4,69.6,643.5,71.4,647.3,71.4z"/>
</g>
<linearGradient id="SVGID_1_" gradientUnits="userSpaceOnUse" x1="120.4336" y1="226.3645" x2="20.4338" y2="14.8648" gradientTransform="matrix(1 0 0 -1 0 240)">
	<stop  offset="0" style="stop-color:#00C6FF"/>
	<stop  offset="1" style="stop-color:#0072FF"/>
</linearGradient>
<path class="st1" d="M85.9,6.4c-44.3,0-80.3,36-80.3,80.3c0,0.4,0-0.2,0,0v121.7c0,0.4,0,0.8,0.1,1.2c0.8,8,7.6,14.3,15.8,14.3
	c3,0,5.7-0.8,8.1-2.2c0.7-0.3,1.3-0.8,1.9-1.3c0.2-0.2,0.4-0.4,0.6-0.6l49.3-52.9c1.5,0.1,3.1,0.1,4.6,0.1c44.3,0,80.3-36,80.3-80.3
	S130.2,6.4,85.9,6.4z M99.5,147.3c-4.4,1-8.9,1.5-13.6,1.5c-4,0-7.9-0.4-11.6-1.1L23.7,202v-64.5V86.7c0-34.3,27.9-62.2,62.2-62.2
	S148,52.4,148,86.7C148,116.3,127.2,141.1,99.5,147.3z"/>
</svg>
